<svg width="60" height="60" viewBox="0 0 60 60" fill="none" xmlns="http://www.w3.org/2000/svg">
<path d="M58.2243 10.2468C60.5669 7.90411 60.5669 4.09964 58.2243 1.75699C55.8816 -0.585663 52.0771 -0.585663 49.7345 1.75699L30 21.5102L10.2468 1.77573C7.90411 -0.566922 4.09964 -0.566922 1.75699 1.77573C-0.585663 4.11838 -0.585663 7.92285 1.75699 10.2655L21.5102 30L1.77573 49.7532C-0.566921 52.0959 -0.566921 55.9004 1.77573 58.243C4.11838 60.5857 7.92285 60.5857 10.2655 58.243L30 38.4898L49.7532 58.2243C52.0959 60.5669 55.9004 60.5669 58.243 58.2243C60.5857 55.8816 60.5857 52.0771 58.243 49.7345L38.4898 30L58.2243 10.2468Z" fill="black"/>
</svg>
