<svg width="60" height="52" viewBox="0 0 60 52" fill="none" xmlns="http://www.w3.org/2000/svg">
<path d="M5.91933 29.8981L5.91881 29.8976C2.45836 26.6762 0.5 22.1566 0.5 17.4315V16.7518C0.5 8.80487 6.24125 2.02908 14.0744 0.721608C19.2589 -0.142471 24.5341 1.55161 28.2402 5.25775L29.6464 6.664L30 7.01755L30.3536 6.664L31.7598 5.25775C35.4659 1.55161 40.7411 -0.142471 45.9256 0.721608C53.7588 2.02908 59.5 8.80487 59.5 16.7518V17.4315C59.5 22.1566 57.5416 26.6762 54.0812 29.8976L54.0807 29.8981L32.9049 49.6676C32.9049 49.6676 32.9049 49.6676 32.9049 49.6676C32.1188 50.4013 31.0807 50.8104 30 50.8104C28.9193 50.8104 27.8811 50.4012 27.0951 49.6676L5.91933 29.8981Z" fill="black" stroke="black"/>
</svg>
