<svg width="70" height="70" viewBox="0 0 70 70" fill="none" xmlns="http://www.w3.org/2000/svg">
<path d="M56.875 28.4375C56.875 34.7129 54.8379 40.5098 51.4062 45.2129L68.7148 62.5352C70.4238 64.2441 70.4238 67.0195 68.7148 68.7285C67.0059 70.4375 64.2305 70.4375 62.5215 68.7285L45.2129 51.4062C40.5098 54.8516 34.7129 56.875 28.4375 56.875C12.7285 56.875 0 44.1465 0 28.4375C0 12.7285 12.7285 0 28.4375 0C44.1465 0 56.875 12.7285 56.875 28.4375ZM28.4375 48.125C31.0229 48.125 33.583 47.6158 35.9716 46.6264C38.3602 45.637 40.5305 44.1868 42.3587 42.3587C44.1868 40.5305 45.637 38.3602 46.6264 35.9716C47.6158 33.583 48.125 31.0229 48.125 28.4375C48.125 25.8521 47.6158 23.292 46.6264 20.9034C45.637 18.5148 44.1868 16.3445 42.3587 14.5163C40.5305 12.6882 38.3602 11.238 35.9716 10.2486C33.583 9.25923 31.0229 8.75 28.4375 8.75C25.8521 8.75 23.292 9.25923 20.9034 10.2486C18.5148 11.238 16.3445 12.6882 14.5163 14.5163C12.6882 16.3445 11.238 18.5148 10.2486 20.9034C9.25923 23.292 8.75 25.8521 8.75 28.4375C8.75 31.0229 9.25923 33.583 10.2486 35.9716C11.238 38.3602 12.6882 40.5305 14.5163 42.3587C16.3445 44.1868 18.5148 45.637 20.9034 46.6264C23.292 47.6158 25.8521 48.125 28.4375 48.125Z" fill="white"/>
</svg>
