<svg width="32" height="32" viewBox="0 0 32 32" fill="none" xmlns="http://www.w3.org/2000/svg">
<path fill-rule="evenodd" clip-rule="evenodd" d="M11.4361 27.1882C11.0726 28.1925 9.96724 28.7093 8.96374 28.3381C7.96023 27.9742 7.44393 26.8679 7.81479 25.8636C8.05476 25.194 9.36368 24.1169 10.2072 23.4691C10.549 23.2071 11.0507 23.3891 11.1453 23.8112C11.378 24.8519 11.6834 26.5186 11.4361 27.1882Z" fill="#66AFEB"/>
<path fill-rule="evenodd" clip-rule="evenodd" d="M17.1861 27.1882C16.8226 28.1925 15.7172 28.7093 14.7137 28.3381C13.7102 27.9742 13.1939 26.8679 13.5648 25.8636C13.8048 25.194 15.1137 24.1169 15.9572 23.4691C16.299 23.2071 16.8007 23.3891 16.8953 23.8112C17.128 24.8519 17.4334 26.5186 17.1861 27.1882Z" fill="#66AFEB"/>
<path fill-rule="evenodd" clip-rule="evenodd" d="M22.9361 27.1882C22.5726 28.1925 21.4672 28.7093 20.4637 28.3381C19.4602 27.9742 18.9439 26.8679 19.3148 25.8636C19.5548 25.194 20.8637 24.1169 21.7072 23.4691C22.049 23.2071 22.5507 23.3891 22.6453 23.8112C22.878 24.8519 23.1834 26.5186 22.9361 27.1882Z" fill="#66AFEB"/>
<path d="M22.7083 14.8287C25.9427 14.8287 28.5648 12.2067 28.5648 8.97221C28.5648 5.73776 25.9427 3.11572 22.7083 3.11572C19.4738 3.11572 16.8518 5.73776 16.8518 8.97221C16.8518 12.2067 19.4738 14.8287 22.7083 14.8287Z" fill="url(#paint0_linear_285_28454)"/>
<path fill-rule="evenodd" clip-rule="evenodd" d="M21.9107 10.541C21.5705 10.541 21.2369 10.5745 20.9167 10.6414C20.2096 7.84496 17.6947 5.77777 14.6929 5.77777C11.1441 5.77777 8.26898 8.66113 8.26898 12.2202C8.26898 12.6751 8.31567 13.1233 8.40906 13.5582C8.36237 13.5582 8.31567 13.5515 8.26898 13.5515C6.1877 13.5515 4.5 15.244 4.5 17.3313C4.5 19.4186 6.0743 20.9907 8.06218 21.0977V21.1111H21.5504V21.091C21.6705 21.0977 21.7906 21.1111 21.9107 21.1111C24.8191 21.1111 27.1806 18.7429 27.1806 15.8261C27.1806 12.9092 24.8191 10.541 21.9107 10.541Z" fill="url(#paint1_linear_285_28454)"/>
<defs>
<linearGradient id="paint0_linear_285_28454" x1="16.9299" y1="3.11572" x2="16.9299" y2="14.6725" gradientUnits="userSpaceOnUse">
<stop stop-color="#FFC227"/>
<stop offset="1" stop-color="#FFB300"/>
</linearGradient>
<linearGradient id="paint1_linear_285_28454" x1="4.5" y1="5.77777" x2="4.5" y2="21.1111" gradientUnits="userSpaceOnUse">
<stop stop-color="#9FC7FF"/>
<stop offset="1" stop-color="#9BC1F5"/>
</linearGradient>
</defs>
</svg>
