<svg width="32" height="32" viewBox="0 0 32 32" fill="none" xmlns="http://www.w3.org/2000/svg">
<path d="M14.0215 25.3673H13.3383L13.6833 24.772C13.9201 24.3594 13.778 23.8318 13.3654 23.595C12.9527 23.3582 12.4251 23.5003 12.1883 23.9129L11.8433 24.5082L11.4983 23.9129C11.2616 23.5003 10.7339 23.3582 10.3213 23.595C10.0575 23.7506 9.89513 24.0347 9.89513 24.3391C9.89513 24.4947 9.93572 24.6367 10.0101 24.7653L10.3551 25.3606H9.66513C9.19161 25.3606 8.80603 25.7461 8.80603 26.2197C8.80603 26.6932 9.19161 27.0788 9.66513 27.0788H10.3551L10.0101 27.6741C9.93572 27.8026 9.89513 27.9514 9.89513 28.1002C9.89513 28.4046 10.0575 28.6955 10.3281 28.8443C10.4634 28.9187 10.6122 28.9593 10.7542 28.9593C11.0519 28.9593 11.3428 28.8037 11.5051 28.5264L11.8501 27.9311L12.1951 28.5264C12.4319 28.939 12.9595 29.0743 13.3721 28.8443C13.7848 28.6076 13.9268 28.0799 13.6901 27.6673L13.3451 27.072H14.0283C14.5018 27.072 14.8874 26.6864 14.8874 26.2129C14.8874 25.7394 14.5018 25.3538 14.0283 25.3538L14.0215 25.3673Z" fill="#B4E5FB"/>
<path d="M14.0215 25.3673H13.3383L13.6833 24.772C13.9201 24.3594 13.778 23.8318 13.3654 23.595C12.9527 23.3582 12.4251 23.5003 12.1883 23.9129L11.8433 24.5082L11.4983 23.9129C11.2616 23.5003 10.7339 23.3582 10.3213 23.595C10.0575 23.7506 9.89513 24.0347 9.89513 24.3391C9.89513 24.4947 9.93572 24.6367 10.0101 24.7653L10.3551 25.3606H9.66513C9.19161 25.3606 8.80603 25.7461 8.80603 26.2197C8.80603 26.6932 9.19161 27.0788 9.66513 27.0788H10.3551L10.0101 27.6741C9.93572 27.8026 9.89513 27.9514 9.89513 28.1002C9.89513 28.4046 10.0575 28.6955 10.3281 28.8443C10.4634 28.9187 10.6122 28.9593 10.7542 28.9593C11.0519 28.9593 11.3428 28.8037 11.5051 28.5264L11.8501 27.9311L12.1951 28.5264C12.4319 28.939 12.9595 29.0743 13.3721 28.8443C13.7848 28.6076 13.9268 28.0799 13.6901 27.6673L13.3451 27.072H14.0283C14.5018 27.072 14.8874 26.6864 14.8874 26.2129C14.8874 25.7394 14.5018 25.3538 14.0283 25.3538L14.0215 25.3673Z" fill="#67C8E2"/>
<path d="M22.3271 25.3673H21.6438L21.9888 24.772C22.2256 24.3594 22.0835 23.8318 21.6709 23.595C21.2583 23.3582 20.7306 23.5003 20.4939 23.9129L20.1489 24.5082L19.8039 23.9129C19.5671 23.5003 19.0395 23.3582 18.6268 23.595C18.363 23.7506 18.2007 24.0347 18.2007 24.3391C18.2007 24.4947 18.2413 24.6367 18.3157 24.7653L18.6607 25.3606H17.9707C17.4972 25.3606 17.1116 25.7461 17.1116 26.2197C17.1116 26.6932 17.4972 27.0788 17.9707 27.0788H18.6607L18.3157 27.6741C18.2413 27.8026 18.2007 27.9514 18.2007 28.1002C18.2007 28.4046 18.363 28.6955 18.6336 28.8443C18.7689 28.9187 18.9177 28.9593 19.0598 28.9593C19.3574 28.9593 19.6483 28.8037 19.8106 28.5264L20.1556 27.9311L20.5006 28.5264C20.7374 28.939 21.265 29.0743 21.6777 28.8443C22.0903 28.6076 22.2324 28.0799 21.9956 27.6673L21.6506 27.072H22.3338C22.8074 27.072 23.1929 26.6864 23.1929 26.2129C23.1929 25.7394 22.8074 25.3538 22.3338 25.3538L22.3271 25.3673Z" fill="#B4E5FB"/>
<path d="M22.3271 25.3673H21.6438L21.9888 24.772C22.2256 24.3594 22.0835 23.8318 21.6709 23.595C21.2583 23.3582 20.7306 23.5003 20.4939 23.9129L20.1489 24.5082L19.8039 23.9129C19.5671 23.5003 19.0395 23.3582 18.6268 23.595C18.363 23.7506 18.2007 24.0347 18.2007 24.3391C18.2007 24.4947 18.2413 24.6367 18.3157 24.7653L18.6607 25.3606H17.9707C17.4972 25.3606 17.1116 25.7461 17.1116 26.2197C17.1116 26.6932 17.4972 27.0788 17.9707 27.0788H18.6607L18.3157 27.6741C18.2413 27.8026 18.2007 27.9514 18.2007 28.1002C18.2007 28.4046 18.363 28.6955 18.6336 28.8443C18.7689 28.9187 18.9177 28.9593 19.0598 28.9593C19.3574 28.9593 19.6483 28.8037 19.8106 28.5264L20.1556 27.9311L20.5006 28.5264C20.7374 28.939 21.265 29.0743 21.6777 28.8443C22.0903 28.6076 22.2324 28.0799 21.9956 27.6673L21.6506 27.072H22.3338C22.8074 27.072 23.1929 26.6864 23.1929 26.2129C23.1929 25.7394 22.8074 25.3538 22.3338 25.3538L22.3271 25.3673Z" fill="#67C8E2"/>
<path fill-rule="evenodd" clip-rule="evenodd" d="M22.4236 9.66017C22.0547 9.66017 21.6929 9.69641 21.3457 9.76888C20.5788 6.73946 17.8514 4.5 14.5959 4.5C10.7472 4.5 7.62911 7.62364 7.62911 11.4793C7.62911 11.9721 7.67975 12.4577 7.78103 12.9288C7.73039 12.9288 7.67975 12.9215 7.62911 12.9215C5.37195 12.9215 3.54163 14.7551 3.54163 17.0163C3.54163 19.2775 5.24896 20.9807 7.40484 21.0966V21.1111H22.033V21.0894C22.1632 21.0966 22.2934 21.1111 22.4236 21.1111C25.5778 21.1111 28.1389 18.5455 28.1389 15.3856C28.1389 12.2258 25.5778 9.66017 22.4236 9.66017Z" fill="url(#paint0_linear_285_28464)"/>
<defs>
<linearGradient id="paint0_linear_285_28464" x1="3.54163" y1="4.5" x2="3.54163" y2="21.1111" gradientUnits="userSpaceOnUse">
<stop stop-color="#9FC7FF"/>
<stop offset="1" stop-color="#9BC1F5"/>
</linearGradient>
</defs>
</svg>
